<?xml version="1.0" encoding="UTF-8" ?>
<!DOCTYPE svg PUBLIC "-//W3C//DTD SVG 1.1//EN" "http://www.w3.org/Graphics/SVG/1.1/DTD/svg11.dtd">
<svg width="334pt" height="530pt" viewBox="0 0 334 530" version="1.1" xmlns="http://www.w3.org/2000/svg">
<path fill="#e3e3e3" d=" M 55.97 39.03 C 60.77 34.59 67.79 34.26 73.98 34.04 C 121.38 34.02 168.77 34.03 216.16 34.04 C 192.23 79.15 168.22 124.23 144.25 169.32 C 143.01 171.61 142.14 174.17 140.29 176.07 C 160.30 228.44 180.42 280.78 200.56 333.11 C 173.08 385.45 145.08 437.52 117.42 489.77 C 95.42 477.92 73.66 465.39 53.75 450.23 C 48.55 445.80 42.52 441.58 39.71 435.14 C 39.66 430.28 41.36 425.59 42.30 420.85 C 51.41 383.74 61.94 346.99 72.20 310.19 C 87.83 254.82 103.76 199.53 119.84 144.29 C 120.53 141.63 121.77 139.01 121.67 136.22 C 100.96 110.29 80.08 84.49 59.33 58.59 C 57.43 56.15 55.14 53.93 53.82 51.09 C 52.81 47.08 52.48 41.97 55.97 39.03 Z" />
<path fill="#e3e3e3" d=" M 241.10 33.99 C 246.83 34.18 253.00 34.03 258.08 37.08 C 260.37 38.58 262.06 41.16 261.62 44.00 C 261.27 49.06 257.64 52.96 254.78 56.84 C 237.36 79.71 220.01 102.63 202.59 125.50 C 199.86 129.07 197.27 132.77 194.28 136.13 C 194.43 136.85 194.72 138.29 194.87 139.00 C 218.19 219.94 241.59 300.87 263.75 382.14 C 268.12 398.56 272.69 414.94 276.24 431.56 C 276.85 433.77 276.44 436.13 274.94 437.90 C 270.05 444.02 263.64 448.67 257.39 453.31 C 240.65 465.32 222.93 475.89 204.97 485.96 C 192.35 492.87 179.68 499.76 166.36 505.24 C 162.75 506.56 158.84 508.43 154.94 507.08 C 147.79 504.93 141.06 501.58 134.33 498.39 C 161.36 447.72 188.25 396.98 215.24 346.30 C 217.33 342.45 219.11 338.41 221.81 334.92 C 213.03 313.56 205.17 291.82 196.75 270.31 C 185.65 241.41 174.57 212.50 163.46 183.60 C 162.03 181.02 164.41 178.64 165.38 176.38 C 190.66 128.93 215.89 81.46 241.10 33.99 Z" />
<path fill="#e3e3e3" d=" M 215.09 151.90 C 214.00 148.69 213.20 145.39 212.47 142.08 C 213.73 144.57 215.07 147.03 216.57 149.39 C 242.50 192.45 268.41 235.52 294.33 278.58 C 299.38 286.23 299.17 297.24 293.55 304.56 C 286.32 314.77 279.41 325.21 272.02 335.31 C 253.09 274.16 234.08 213.03 215.09 151.90 Z" />
</svg>
